<svg id="Icon_feather-shopping-cart" data-name="Icon feather-shopping-cart" xmlns="http://www.w3.org/2000/svg" width="45.952" height="44" viewBox="0 0 45.952 44">
  <path id="Path_158" data-name="Path 158" d="M15.9,31.952A1.952,1.952,0,1,1,13.952,30,1.952,1.952,0,0,1,15.9,31.952Z" transform="translate(3.167 8.595)" fill="none" stroke="#fff" stroke-linecap="round" stroke-linejoin="round" stroke-width="3"/>
  <path id="Path_159" data-name="Path 159" d="M32.4,31.952A1.952,1.952,0,1,1,30.452,30,1.952,1.952,0,0,1,32.4,31.952Z" transform="translate(8.143 8.595)" fill="none" stroke="#fff" stroke-linecap="round" stroke-linejoin="round" stroke-width="3"/>
  <path id="Path_160" data-name="Path 160" d="M1.5,1.5H9.31l5.232,26.142a3.9,3.9,0,0,0,3.9,3.143H37.424a3.9,3.9,0,0,0,3.9-3.143l3.124-16.38H11.262" fill="none" stroke="#fff" stroke-linecap="round" stroke-linejoin="round" stroke-width="3"/>
</svg>
