<svg xmlns="http://www.w3.org/2000/svg" width="194.762" height="68.875" viewBox="0 0 194.762 68.875">
  <g id="Group_1" data-name="Group 1" transform="translate(-83.51 -28.374)">
    <text id="Stylush" transform="translate(110.272 85.249)" fill="#ff5d5d" font-size="51" font-family="Helvetica"><tspan x="0" y="0">Stylush</tspan></text>
    <g id="Layer_31" data-name="Layer 31" transform="translate(83.51 28.374)">
      <path id="Path_1" data-name="Path 1" d="M3.311,20.917,1.9,23.744a2.5,2.5,0,0,0,1.63,3.545l.722.18.775,4.266A3.427,3.427,0,0,0,8.4,34.55a3.355,3.355,0,0,0,.484-.035l3.827-.546a6.882,6.882,0,0,1,.951,3.5v2.782h1.266V37.462a8.133,8.133,0,0,0-.908-3.733l2.3-.457-.253-1.241-3.149.629-4.217.6a2.182,2.182,0,0,1-2.431-1.751L5.42,26.841a.633.633,0,0,0-.469-.5l-1.117-.28a1.234,1.234,0,0,1-.8-1.75l2.338-4.67a.633.633,0,0,0,.034-.483,11.693,11.693,0,0,1-.6-3.7A5.883,5.883,0,0,1,6.073,11.8L9.12,20.469A29.436,29.436,0,0,0,24.659,37.525l.4,2.813,1.253-.18-.292-2.046c.352.141.7.284,1.06.412a29.5,29.5,0,0,0,9.95,1.723h2.581a.633.633,0,0,0,.246-1.217l-5.936-2.5a13.357,13.357,0,0,1-2.717-1.548,31.935,31.935,0,0,0,8.338,2.1.653.653,0,0,0,.07,0,.633.633,0,0,0,.282-1.2,19.212,19.212,0,0,1-5.229-3.841,10.927,10.927,0,0,0,4.867,1.871.633.633,0,0,0,.474-1.122,12.581,12.581,0,0,1-4.165-6.1l-.3-.965a104.827,104.827,0,0,1-2.726-10.67A17.535,17.535,0,0,0,15.667,1,14.686,14.686,0,0,0,1,15.667a7.1,7.1,0,0,0,2.311,5.251ZM15.667,2.266a16.269,16.269,0,0,1,15.909,13.04,106.1,106.1,0,0,0,2.759,10.8l.3.965a13.831,13.831,0,0,0,2.818,5.022,9.7,9.7,0,0,1-4.914-4.178l-4.406-7.607a.633.633,0,0,0-1.125.577l2.793,6.2a20.568,20.568,0,0,0,6.7,8.21,30.307,30.307,0,0,1-10.412-4.436,29.16,29.16,0,0,1-4.4-10.06l-1.076-4.748-1.236.281,1.076,4.748a30.443,30.443,0,0,0,2.9,7.713,30.491,30.491,0,0,1-7.735-10.009L14.23,15.917l-1.139.551,1.386,2.871A31.588,31.588,0,0,0,27.636,33.29a14.679,14.679,0,0,0,5.8,4.408l3.034,1.277A28.318,28.318,0,0,1,10.314,20.048L7.065,10.8l1.3-1.086-.812-.972-1.445,1.2a7.153,7.153,0,0,0-2.581,5.511,12.961,12.961,0,0,0,.585,3.85l-.214.425a5.843,5.843,0,0,1-1.637-4.066,13.416,13.416,0,0,1,13.4-13.4Z" transform="translate(-1 -0.999)" fill="#ff5d5d"/>
      <path id="Path_2" data-name="Path 2" d="M17.633,10.431a1.687,1.687,0,0,1,1.65,1.353l.261,1.305a.633.633,0,0,0,1.241,0l.261-1.3a1.687,1.687,0,0,1,1.65-1.356.633.633,0,1,0,0-1.266,1.687,1.687,0,0,1-1.65-1.353l-.261-1.305a.633.633,0,0,0-1.241,0l-.261,1.3a1.687,1.687,0,0,1-1.65,1.356.633.633,0,1,0,0,1.266Zm2.532-1.439a2.975,2.975,0,0,0,.71.806,2.975,2.975,0,0,0-.71.806,2.975,2.975,0,0,0-.71-.806,2.975,2.975,0,0,0,.71-.806Z" transform="translate(-6.872 -2.834)" fill="#ff5d5d"/>
      <path id="Path_3" data-name="Path 3" d="M58.7,24.165a1.687,1.687,0,0,1-1.65-1.353l-.261-1.305a.633.633,0,0,0-1.241,0l-.261,1.3a1.687,1.687,0,0,1-1.65,1.356.633.633,0,0,0,0,1.266,1.687,1.687,0,0,1,1.65,1.353l.261,1.305a.633.633,0,0,0,1.241,0l.261-1.3a1.687,1.687,0,0,1,1.65-1.356.633.633,0,1,0,0-1.266ZM56.165,25.6a2.975,2.975,0,0,0-.71-.806,2.975,2.975,0,0,0,.71-.806,2.975,2.975,0,0,0,.71.806,2.975,2.975,0,0,0-.71.806Z" transform="translate(-20.083 -8.339)" fill="#ff5d5d"/>
      <path id="Path_4" data-name="Path 4" d="M46.633,5.431a1.687,1.687,0,0,1,1.65,1.353l.261,1.305a.633.633,0,0,0,1.241,0l.261-1.3A1.687,1.687,0,0,1,51.7,5.431a.633.633,0,1,0,0-1.266,1.687,1.687,0,0,1-1.65-1.353l-.261-1.305a.633.633,0,0,0-1.241,0l-.261,1.3a1.687,1.687,0,0,1-1.65,1.356.633.633,0,0,0,0,1.266Zm2.532-1.439a2.975,2.975,0,0,0,.71.806,2.975,2.975,0,0,0-.71.806,2.975,2.975,0,0,0-.71-.806,2.975,2.975,0,0,0,.71-.806Z" transform="translate(-17.514 -0.999)" fill="#ff5d5d"/>
    </g>
  </g>
</svg>
