<svg xmlns="http://www.w3.org/2000/svg" width="54.781" height="28.049" viewBox="0 0 54.781 28.049">
  <path id="Icon_metro-discout" data-name="Icon metro-discout" d="M57.292,23.7a8.632,8.632,0,0,1-5.368,8.17v4.1a1.753,1.753,0,0,1-1.751,1.753H9.632a1.752,1.752,0,0,1-1.753-1.753v-4.1A8.629,8.629,0,0,1,2.511,23.7a8.631,8.631,0,0,1,5.37-8.17v-4.1A1.751,1.751,0,0,1,9.634,9.671h40.54a1.752,1.752,0,0,1,1.751,1.753v4.1a8.63,8.63,0,0,1,5.367,8.17Zm-33.635,0H16.645v1.753h7.012V23.7Zm8.325-5.977a2.939,2.939,0,0,0-4.062,0,3.62,3.62,0,0,0-.743,2.5,3.639,3.639,0,0,0,.743,2.512,1.97,1.97,0,0,0,1.723.813,3.376,3.376,0,0,0,2.341-.813,3.647,3.647,0,0,0,.741-2.512,3.634,3.634,0,0,0-.743-2.5Zm5.963-1.089L28.951,30.748h1.781l8.95-14.119H37.945Zm2.8,8.1a2.946,2.946,0,0,0-4.064,0,3.632,3.632,0,0,0-.739,2.5,3.644,3.644,0,0,0,.739,2.512,2.637,2.637,0,0,0,2.056.815,2.582,2.582,0,0,0,2.01-.815,3.644,3.644,0,0,0,.741-2.512,3.64,3.64,0,0,0-.743-2.5ZM38.693,29.2a.678.678,0,0,1-.593-.319,3.235,3.235,0,0,1-.283-1.647A3.28,3.28,0,0,1,38.1,25.58a.671.671,0,0,1,.593-.312.692.692,0,0,1,.6.312,3.369,3.369,0,0,1,.275,1.654,3.284,3.284,0,0,1-.283,1.654.668.668,0,0,1-.593.312Zm-8.764-7.01a.676.676,0,0,1-.593-.32,3.235,3.235,0,0,1-.283-1.647,3.28,3.28,0,0,1,.283-1.654.67.67,0,0,1,.593-.31.693.693,0,0,1,.6.31,3.369,3.369,0,0,1,.275,1.654,3.285,3.285,0,0,1-.283,1.654A.673.673,0,0,1,29.93,22.191Z" transform="translate(-2.511 -9.671)" fill="#3b31b9"/>
</svg>
