<svg xmlns="http://www.w3.org/2000/svg" width="49.436" height="54.929" viewBox="0 0 49.436 54.929">
  <path id="Icon_material-date-range" data-name="Icon material-date-range" d="M20.979,27.718H15.486v5.493h5.493Zm10.986,0H26.471v5.493h5.493Zm10.986,0H37.457v5.493H42.95ZM48.443,8.493H45.7V3H40.2V8.493H18.232V3H12.739V8.493H9.993a5.468,5.468,0,0,0-5.465,5.493L4.5,52.436a5.491,5.491,0,0,0,5.493,5.493h38.45a5.509,5.509,0,0,0,5.493-5.493V13.986A5.509,5.509,0,0,0,48.443,8.493Zm0,43.943H9.993V22.225h38.45Z" transform="translate(-4.5 -3)"/>
</svg>
